<?xml version="1.0" encoding="UTF-8" standalone="no"?>
<svg
   xmlns:dc="http://purl.org/dc/elements/1.1/"
   xmlns:cc="http://creativecommons.org/ns#"
   xmlns:rdf="http://www.w3.org/1999/02/22-rdf-syntax-ns#"
   xmlns:svg="http://www.w3.org/2000/svg"
   xmlns="http://www.w3.org/2000/svg"
   viewBox="0 0 38.037334 32.195999"
   height="32.195999"
   width="38.037334"
   xml:space="preserve"
   id="svg2"
   version="1.1"><metadata
     id="metadata8"><rdf:RDF><cc:Work
         rdf:about=""><dc:format>image/svg+xml</dc:format><dc:type
           rdf:resource="http://purl.org/dc/dcmitype/StillImage" /></cc:Work></rdf:RDF></metadata><defs
     id="defs6"><clipPath
       id="clipPath18"
       clipPathUnits="userSpaceOnUse"><path
         id="path16"
         d="M 0,24.147 H 28.528 V 0 H 0 Z" /></clipPath></defs><g
     transform="matrix(1.3333333,0,0,-1.3333333,0,32.196)"
     id="g10"><g
       id="g12"><g
         clip-path="url(#clipPath18)"
         id="g14"><g
           transform="translate(4.2734,0.5)"
           id="g20"><path
             id="path22"
             style="fill:none;stroke:#000000;stroke-width:1;stroke-linecap:round;stroke-linejoin:round;stroke-miterlimit:4;stroke-dasharray:none;stroke-opacity:1"
             d="m 0,0 -3.773,3.163 c 3.262,2.138 6.22,6.219 6.627,9.482 -0.203,-0.104 -0.917,-0.204 -1.428,-0.204 -2.854,0 -4.894,2.142 -4.894,5.197 0,2.96 2.345,5.509 5.405,5.509 3.364,0 6.424,-2.752 6.424,-7.75 C 8.361,9.178 4.689,3.367 0,0 Z" /></g><g
           transform="translate(19.6675,0.5)"
           id="g24"><path
             id="path26"
             style="fill:none;stroke:#000000;stroke-width:1;stroke-linecap:round;stroke-linejoin:round;stroke-miterlimit:4;stroke-dasharray:none;stroke-opacity:1"
             d="m 0,0 -3.773,3.163 c 3.262,2.138 6.22,6.219 6.627,9.482 -0.203,-0.104 -0.917,-0.204 -1.428,-0.204 -2.854,0 -4.894,2.142 -4.894,5.197 0,2.96 2.345,5.509 5.405,5.509 3.364,0 6.424,-2.752 6.424,-7.75 C 8.361,9.178 4.689,3.367 0,0 Z" /></g></g></g></g></svg>