<?xml version="1.0" encoding="UTF-8" standalone="no"?>
<svg
   xmlns:dc="http://purl.org/dc/elements/1.1/"
   xmlns:cc="http://creativecommons.org/ns#"
   xmlns:rdf="http://www.w3.org/1999/02/22-rdf-syntax-ns#"
   xmlns:svg="http://www.w3.org/2000/svg"
   xmlns="http://www.w3.org/2000/svg"
   viewBox="0 0 55.094002 70.088669"
   height="70.088669"
   width="55.094002"
   xml:space="preserve"
   id="svg2"
   version="1.1"><metadata
     id="metadata8"><rdf:RDF><cc:Work
         rdf:about=""><dc:format>image/svg+xml</dc:format><dc:type
           rdf:resource="http://purl.org/dc/dcmitype/StillImage" /></cc:Work></rdf:RDF></metadata><defs
     id="defs6"><clipPath
       id="clipPath18"
       clipPathUnits="userSpaceOnUse"><path
         id="path16"
         d="M 0,52.567 H 41.32 V 0 H 0 Z" /></clipPath></defs><g
     transform="matrix(1.3333333,0,0,-1.3333333,0,70.088667)"
     id="g10"><g
       id="g12"><g
         clip-path="url(#clipPath18)"
         id="g14"><g
           transform="translate(20.44,6.8966)"
           id="g20"><path
             id="path22"
             style="fill:none;stroke:#000000;stroke-width:1.5;stroke-linecap:round;stroke-linejoin:round;stroke-miterlimit:10;stroke-dasharray:none;stroke-opacity:1"
             d="m 0,0 h -18.69 c -0.55,0 -1,0.45 -1,1 v 42.92 c 0,0.55 0.45,1 1,1 h 32.32 c 0.55,0 1,-0.45 1,-1 V 18.69" /></g><g
           transform="translate(6.1747,45.6779)"
           id="g24"><path
             id="path26"
             style="fill:none;stroke:#000000;stroke-width:1.5;stroke-linecap:round;stroke-linejoin:round;stroke-miterlimit:10;stroke-dasharray:none;stroke-opacity:1"
             d="M 0,0 H 18.796" /></g><g
           transform="translate(6.1747,40.1994)"
           id="g28"><path
             id="path30"
             style="fill:none;stroke:#000000;stroke-width:1.5;stroke-linecap:round;stroke-linejoin:round;stroke-miterlimit:10;stroke-dasharray:none;stroke-opacity:1"
             d="M 0,0 H 14.444" /></g><g
           transform="translate(6.1747,34.721)"
           id="g32"><path
             id="path34"
             style="fill:none;stroke:#000000;stroke-width:1.5;stroke-linecap:round;stroke-linejoin:round;stroke-miterlimit:10;stroke-dasharray:none;stroke-opacity:1"
             d="M 0,0 H 18.796" /></g><g
           transform="translate(6.1747,29.2426)"
           id="g36"><path
             id="path38"
             style="fill:none;stroke:#000000;stroke-width:1.5;stroke-linecap:round;stroke-linejoin:round;stroke-miterlimit:10;stroke-dasharray:none;stroke-opacity:1"
             d="M 0,0 H 10.887" /></g><g
           transform="translate(29.7553,27.7072)"
           id="g40"><path
             id="path42"
             style="fill:none;stroke:#0f778b;stroke-width:1.5;stroke-linecap:round;stroke-linejoin:round;stroke-miterlimit:10;stroke-dasharray:none;stroke-opacity:1"
             d="M 0,0 V 0 H -0.004" /></g><g
           transform="translate(29.7514,27.7072)"
           id="g44"><path
             id="path46"
             style="fill:none;stroke:#0f778b;stroke-width:1.5;stroke-linecap:round;stroke-linejoin:round;stroke-miterlimit:10;stroke-dasharray:none;stroke-opacity:1"
             d="M 0,0 H 0.004" /></g><g
           transform="translate(19.7096,17.7249)"
           id="g48"><path
             id="path50"
             style="fill:none;stroke:#0f778b;stroke-width:1.5;stroke-linecap:round;stroke-linejoin:round;stroke-miterlimit:10;stroke-dasharray:none;stroke-opacity:1"
             d="M 0,0 V -0.002" /></g><g
           transform="translate(29.7514,27.7072)"
           id="g52"><path
             id="path54"
             style="fill:none;stroke:#0f778b;stroke-width:1.5;stroke-linecap:round;stroke-linejoin:round;stroke-miterlimit:10;stroke-dasharray:none;stroke-opacity:1"
             d="M 0,0 H -0.014 C -0.49,0.001 -0.848,-0.07 -1.142,-0.194 -1.583,-0.381 -1.853,-0.674 -2.155,-0.957 -2.459,-1.242 -2.799,-1.533 -3.409,-1.784 -4.226,-2.118 -4.749,-2.066 -5.297,-2.088 -5.57,-2.099 -5.85,-2.13 -6.146,-2.25 -6.443,-2.37 -6.749,-2.575 -7.089,-2.913 -7.428,-3.25 -7.635,-3.555 -7.756,-3.85 -7.939,-4.296 -7.921,-4.695 -7.935,-5.11 -7.949,-5.528 -7.983,-5.975 -8.237,-6.586 -8.578,-7.398 -8.986,-7.732 -9.359,-8.135 -9.543,-8.336 -9.719,-8.556 -9.844,-8.85 -9.969,-9.144 -10.04,-9.505 -10.042,-9.984" /></g><g
           transform="translate(29.7553,27.7072)"
           id="g56"><path
             id="path58"
             style="fill:none;stroke:#0f778b;stroke-width:1.5;stroke-linecap:round;stroke-linejoin:round;stroke-miterlimit:10;stroke-dasharray:none;stroke-opacity:1"
             d="m 0,0 c 0.478,-0.001 0.837,-0.073 1.131,-0.198 0.293,-0.124 0.514,-0.3 0.714,-0.485 0.404,-0.372 0.738,-0.78 1.55,-1.121 C 4.006,-2.058 4.453,-2.093 4.87,-2.107 5.285,-2.12 5.684,-2.104 6.129,-2.286 6.426,-2.407 6.731,-2.613 7.068,-2.953 7.39,-3.277 7.581,-3.583 7.684,-3.879 7.789,-4.175 7.805,-4.455 7.805,-4.721 7.805,-4.87 7.8,-5.016 7.8,-5.162 7.802,-5.601 7.841,-6.04 8.195,-6.631 c 0.362,-0.6 0.686,-0.944 0.967,-1.25 0.28,-0.306 0.529,-0.588 0.673,-1.028 0.096,-0.292 0.144,-0.644 0.144,-1.113 v -0.019" /></g><g
           transform="translate(39.7343,17.6657)"
           id="g60"><path
             id="path62"
             style="fill:none;stroke:#0f778b;stroke-width:1.5;stroke-linecap:round;stroke-linejoin:round;stroke-miterlimit:10;stroke-dasharray:none;stroke-opacity:1"
             d="m 0,0 v 0 c -0.001,-0.479 -0.072,-0.84 -0.197,-1.134 -0.124,-0.294 -0.3,-0.514 -0.485,-0.715 -0.372,-0.403 -0.781,-0.737 -1.121,-1.55 -0.254,-0.61 -0.289,-1.058 -0.302,-1.475 -0.014,-0.414 0.003,-0.814 -0.18,-1.259 -0.121,-0.296 -0.327,-0.601 -0.667,-0.938 -0.34,-0.339 -0.646,-0.543 -0.941,-0.663 -0.297,-0.12 -0.577,-0.151 -0.85,-0.162 -0.548,-0.022 -1.072,0.03 -1.888,-0.303 -0.61,-0.253 -0.951,-0.543 -1.255,-0.828 -0.302,-0.282 -0.572,-0.577 -1.012,-0.763 -0.293,-0.123 -0.653,-0.194 -1.128,-0.194 h -0.013 -0.002 c -0.478,10e-4 -0.84,0.073 -1.134,0.198 -0.294,0.125 -0.514,0.3 -0.714,0.485 -0.404,0.373 -0.738,0.781 -1.55,1.122 -0.61,0.254 -1.059,0.288 -1.476,0.302 -0.414,0.014 -0.814,-0.003 -1.258,0.179 -0.297,0.121 -0.601,0.328 -0.939,0.668 -0.338,0.339 -0.542,0.645 -0.662,0.941 -0.12,0.297 -0.151,0.576 -0.163,0.849 -0.021,0.548 0.031,1.073 -0.303,1.889 -0.252,0.609 -0.542,0.95 -0.828,1.253 -0.282,0.303 -0.576,0.573 -0.763,1.014 -0.124,0.293 -0.194,0.652 -0.194,1.128 v 0.014" /></g><g
           transform="translate(36.6652,10.4819)"
           id="g64"><path
             id="path66"
             style="fill:none;stroke:#0f778b;stroke-width:1.5;stroke-linecap:round;stroke-linejoin:round;stroke-miterlimit:10;stroke-dasharray:none;stroke-opacity:1"
             d="m 0,0 c 0.521,-1.345 1.587,-3.262 3.905,-4.887 0,0 -0.593,-1.341 -3.551,-0.772 0,0 -0.276,-1.262 0.301,-4.073 -2.038,1.306 -5.044,4.065 -6.04,7.171 -0.035,0.107 -0.027,0.075 -0.051,0.174" /></g><g
           transform="translate(28.2128,8.0688)"
           id="g68"><path
             id="path70"
             style="fill:none;stroke:#0f778b;stroke-width:1.5;stroke-linecap:round;stroke-linejoin:round;stroke-miterlimit:10;stroke-dasharray:none;stroke-opacity:1"
             d="m 0,0 c -0.024,-0.1 -0.009,-0.041 -0.045,-0.148 -0.996,-3.106 -4.001,-5.865 -6.04,-7.171 0.577,2.811 0.302,4.073 0.302,4.073 -2.958,-0.569 -3.551,0.772 -3.551,0.772 2.318,1.625 3.383,3.542 3.905,4.887" /></g><g
           transform="translate(35.5955,17.6949)"
           id="g72"><path
             id="path74"
             style="fill:none;stroke:#0f778b;stroke-width:1.5;stroke-linecap:round;stroke-linejoin:round;stroke-miterlimit:10;stroke-dasharray:none;stroke-opacity:1"
             d="m 0,0 c 0,-3.244 -2.63,-5.873 -5.873,-5.873 -3.244,0 -5.873,2.629 -5.873,5.873 0,3.244 2.629,5.872 5.873,5.872 C -2.63,5.872 0,3.244 0,0 Z" /></g></g></g></g></svg>