<?xml version="1.0" encoding="UTF-8" standalone="no"?>
<svg
   xmlns:dc="http://purl.org/dc/elements/1.1/"
   xmlns:cc="http://creativecommons.org/ns#"
   xmlns:rdf="http://www.w3.org/1999/02/22-rdf-syntax-ns#"
   xmlns:svg="http://www.w3.org/2000/svg"
   xmlns="http://www.w3.org/2000/svg"
   viewBox="0 0 46.204266 46.204399"
   height="46.204399"
   width="46.204266"
   xml:space="preserve"
   id="svg2"
   version="1.1"><metadata
     id="metadata8"><rdf:RDF><cc:Work
         rdf:about=""><dc:format>image/svg+xml</dc:format><dc:type
           rdf:resource="http://purl.org/dc/dcmitype/StillImage" /></cc:Work></rdf:RDF></metadata><defs
     id="defs6"><clipPath
       id="clipPath18"
       clipPathUnits="userSpaceOnUse"><path
         id="path16"
         d="M 0,34.653 H 34.653 V 0 H 0 Z" /></clipPath></defs><g
     transform="matrix(1.3333333,0,0,-1.3333333,0,46.2044)"
     id="g10"><g
       id="g12"><g
         clip-path="url(#clipPath18)"
         id="g14"><g
           transform="translate(13.9221,33.8934)"
           id="g20"><path
             id="path22"
             style="fill:none;stroke:#231f20;stroke-width:1.5;stroke-linecap:round;stroke-linejoin:miter;stroke-miterlimit:10;stroke-dasharray:none;stroke-opacity:1"
             d="m 0,0 c 7.554,0.284 13.905,-5.606 14.191,-13.16 0.282,-7.555 -5.609,-13.907 -13.16,-14.191 -7.558,-0.287 -13.909,5.607 -14.193,13.157 C -13.446,-6.639 -7.555,-0.285 0,0 Z" /></g><g
           transform="translate(24.1118,10.541)"
           id="g24"><path
             id="path26"
             style="fill:none;stroke:#231f20;stroke-width:1.5;stroke-linecap:round;stroke-linejoin:miter;stroke-miterlimit:10;stroke-dasharray:none;stroke-opacity:1"
             d="M 0,0 9.791,-9.791" /></g><g
           transform="translate(18.5643,20.5646)"
           id="g28"><path
             id="path30"
             style="fill:#000000;fill-opacity:1;fill-rule:nonzero;stroke:none"
             d="m 0,0 c 0.214,0 0.401,-0.076 0.562,-0.228 0.151,-0.16 0.227,-0.347 0.227,-0.561 0,-0.223 -0.076,-0.415 -0.227,-0.575 C 0.401,-1.516 0.214,-1.592 0,-1.592 h -2.876 v -2.876 c 0,-0.223 -0.08,-0.41 -0.241,-0.562 -0.152,-0.16 -0.339,-0.24 -0.562,-0.24 -0.223,0 -0.41,0.08 -0.561,0.24 -0.152,0.152 -0.228,0.339 -0.228,0.562 v 2.876 h -2.876 c -0.223,0 -0.414,0.076 -0.575,0.228 -0.152,0.16 -0.227,0.352 -0.227,0.575 0,0.214 0.075,0.401 0.227,0.561 C -7.758,-0.076 -7.567,0 -7.344,0 h 2.876 v 2.876 c 0,0.223 0.076,0.41 0.228,0.562 0.151,0.16 0.338,0.24 0.561,0.24 0.223,0 0.41,-0.08 0.562,-0.24 0.161,-0.152 0.241,-0.339 0.241,-0.562 V 0 Z" /></g></g></g></g></svg>