<?xml version="1.0" encoding="UTF-8" standalone="no"?>
<svg
   xmlns:dc="http://purl.org/dc/elements/1.1/"
   xmlns:cc="http://creativecommons.org/ns#"
   xmlns:rdf="http://www.w3.org/1999/02/22-rdf-syntax-ns#"
   xmlns:svg="http://www.w3.org/2000/svg"
   xmlns="http://www.w3.org/2000/svg"
   viewBox="0 0 263.39868 221.692"
   height="221.692"
   width="263.39868"
   xml:space="preserve"
   id="svg2"
   version="1.1"><metadata
     id="metadata8"><rdf:RDF><cc:Work
         rdf:about=""><dc:format>image/svg+xml</dc:format><dc:type
           rdf:resource="http://purl.org/dc/dcmitype/StillImage" /></cc:Work></rdf:RDF></metadata><defs
     id="defs6"><clipPath
       id="clipPath18"
       clipPathUnits="userSpaceOnUse"><path
         id="path16"
         d="M 0,166.269 H 197.549 V 0 H 0 Z" /></clipPath></defs><g
     transform="matrix(1.3333333,0,0,-1.3333333,0,221.692)"
     id="g10"><g
       id="g12"><g
         clip-path="url(#clipPath18)"
         id="g14"><g
           transform="translate(27.4421,0.5)"
           id="g20"><path
             id="path22"
             style="fill:none;stroke:#000000;stroke-width:1;stroke-linecap:round;stroke-linejoin:round;stroke-miterlimit:4;stroke-dasharray:none;stroke-opacity:1"
             d="m 0,0 -26.942,22.585 c 23.296,15.264 44.414,44.4 47.319,67.696 -1.452,-0.741 -6.55,-1.452 -10.196,-1.452 -20.377,0 -34.945,15.294 -34.945,37.108 0,21.133 16.746,39.332 38.591,39.332 24.022,0 45.867,-19.651 45.867,-55.337 C 59.694,65.533 33.477,24.038 0,0 Z" /></g><g
           transform="translate(137.355,0.5)"
           id="g24"><path
             id="path26"
             style="fill:none;stroke:#000000;stroke-width:1;stroke-linecap:round;stroke-linejoin:round;stroke-miterlimit:4;stroke-dasharray:none;stroke-opacity:1"
             d="m 0,0 -26.942,22.585 c 23.296,15.264 44.414,44.4 47.319,67.696 -1.452,-0.741 -6.55,-1.452 -10.196,-1.452 -20.377,0 -34.945,15.294 -34.945,37.108 0,21.133 16.747,39.332 38.591,39.332 24.022,0 45.867,-19.651 45.867,-55.337 C 59.694,65.533 33.478,24.038 0,0 Z" /></g></g></g></g></svg>