<?xml version="1.0" encoding="UTF-8" standalone="no"?>
<svg
   xmlns:dc="http://purl.org/dc/elements/1.1/"
   xmlns:cc="http://creativecommons.org/ns#"
   xmlns:rdf="http://www.w3.org/1999/02/22-rdf-syntax-ns#"
   xmlns:svg="http://www.w3.org/2000/svg"
   xmlns="http://www.w3.org/2000/svg"
   viewBox="0 0 58.035332 57.517067"
   height="57.517067"
   width="58.035332"
   xml:space="preserve"
   id="svg2"
   version="1.1"><metadata
     id="metadata8"><rdf:RDF><cc:Work
         rdf:about=""><dc:format>image/svg+xml</dc:format><dc:type
           rdf:resource="http://purl.org/dc/dcmitype/StillImage" /></cc:Work></rdf:RDF></metadata><defs
     id="defs6"><clipPath
       id="clipPath18"
       clipPathUnits="userSpaceOnUse"><path
         id="path16"
         d="M 0,43.138 H 43.526 V 0 H 0 Z" /></clipPath></defs><g
     transform="matrix(1.3333333,0,0,-1.3333333,0,57.517067)"
     id="g10"><g
       id="g12"><g
         clip-path="url(#clipPath18)"
         id="g14"><g
           transform="translate(12.6425,18.7281)"
           id="g20"><path
             id="path22"
             style="fill:none;stroke:#231f20;stroke-width:1.5;stroke-linecap:round;stroke-linejoin:round;stroke-miterlimit:10;stroke-dasharray:none;stroke-opacity:1"
             d="m 0,0 c -0.734,0.1 -1.468,0.255 -2.175,0.436 l -7.406,-2.549 1.667,5.587 c -2.455,2.141 -3.978,5.062 -3.978,8.281 0,6.57 6.32,11.905 14.108,11.905 7.799,0 14.119,-5.335 14.119,-11.905 0,-0.608 -0.057,-1.186 -0.154,-1.763" /></g><g
           transform="translate(29.9844,24.0934)"
           id="g24"><path
             id="path26"
             style="fill:none;stroke:#118197;stroke-width:1.5;stroke-linecap:round;stroke-linejoin:round;stroke-miterlimit:10;stroke-dasharray:none;stroke-opacity:1"
             d="m 0,0 c 7.068,0 12.792,-4.832 12.792,-10.788 0,-2.919 -1.379,-5.557 -3.61,-7.498 l 1.508,-5.057 -6.708,2.313 C 2.73,-21.374 1.394,-21.566 0,-21.566 c -7.06,0 -12.785,4.824 -12.785,10.778 C -12.785,-4.832 -7.06,0 0,0 Z" /></g></g></g></g></svg>